<?xml version="1.0" encoding="UTF-8" standalone="no"?>
<svg
   version="1.1"
   id="Layer_1"
   x="0px"
   y="0px"
   width="100%"
   viewBox="0 0 1024 1024"
   enable-background="new 0 0 1024 1024"
   xml:space="preserve"
   sodipodi:docname="LogoMundano.svg"
   inkscape:version="1.3.2 (091e20ef0f, 2023-11-25)"
   inkscape:export-filename="LogoMundano.png"
   inkscape:export-xdpi="96"
   inkscape:export-ydpi="96"
   xmlns:inkscape="http://www.inkscape.org/namespaces/inkscape"
   xmlns:sodipodi="http://sodipodi.sourceforge.net/DTD/sodipodi-0.dtd"
   xmlns="http://www.w3.org/2000/svg"
   xmlns:svg="http://www.w3.org/2000/svg"><defs
   id="defs11" /><sodipodi:namedview
   id="namedview11"
   pagecolor="#505050"
   bordercolor="#eeeeee"
   borderopacity="1"
   inkscape:showpageshadow="0"
   inkscape:pageopacity="0"
   inkscape:pagecheckerboard="0"
   inkscape:deskcolor="#505050"
   inkscape:zoom="0.40360639"
   inkscape:cx="152.37618"
   inkscape:cy="590.92227"
   inkscape:window-width="1920"
   inkscape:window-height="1030"
   inkscape:window-x="0"
   inkscape:window-y="26"
   inkscape:window-maximized="1"
   inkscape:current-layer="Layer_1" />











<g
   id="g40"
   inkscape:label="Logo"
   style="fill:#c6d0f5;fill-opacity:1;stroke:none;stroke-width:10;stroke-dasharray:none;stroke-opacity:1"
   transform="matrix(1.1515935,0,0,1.1510902,-89.184891,-124.01533)"><ellipse
     style="fill:#c6d0f5;fill-opacity:1;stroke:#c6d0f5;stroke-width:40;stroke-dasharray:none;stroke-opacity:1"
     id="ellipse30"
     cx="529.74768"
     cy="-550.85736"
     transform="matrix(0.99385233,0,0,-0.99428693,1.2481584,4.8227384)"
     rx="295.26279"
     ry="294.81537"
     inkscape:label="Fundo" /><g
     id="g39"
     inkscape:label="Circulo"
     transform="translate(12.76211,25.273608)"
     style="fill:#232634;fill-opacity:1;stroke:none;stroke-width:10;stroke-dasharray:none;stroke-opacity:1"><path
       fill="#000000"
       opacity="1"
       stroke="none"
       d="m 566.59027,575.95471 c 9.79657,11.43372 21.33661,20.56195 31.77625,30.8313 8.82147,8.67761 18.69482,15.55463 30.69964,18.96082 4.11798,1.16839 3.84509,4.4223 4.26062,7.51886 1.85266,13.80712 5.10034,27.16504 13.34369,38.74554 1.99951,2.80908 4.53149,5.23901 7.03278,8.0871 -2.71503,3.24225 -4.83039,5.23242 -9.31665,1.79211 -11.64887,-8.93304 -25.27228,-11.56439 -39.66162,-10.45471 -3.45569,0.26654 -5.50666,-0.89313 -7.51178,-3.55749 -5.01429,-6.66291 -10.6178,-12.84131 -16.72736,-18.53162 -1.39032,-1.29492 -2.73535,-3.5799 -4.9679,-2.42981 -2.15911,1.1123 -1.29504,3.62793 -1.12451,5.49805 0.58844,6.45245 1.42224,12.88238 2.12665,19.32489 0.0654,0.5979 -0.12366,1.22369 -0.22729,2.11981 -4.87995,-1.02771 -8.41718,-5.27924 -13.93378,-4.84107 -1.33759,6.81073 0.0261,13.41346 0.17847,19.95728 0.30596,13.13733 1.21917,26.25952 1.77453,39.39252 0.27582,6.52172 1.81305,7.88848 8.25684,7.07446 20.3266,-2.56775 40.78808,-3.46301 61.21643,-4.65674 28.29175,-1.65326 56.62927,-1.10461 84.95154,-1.10712 1.91986,-1.2e-4 3.98114,-0.55987 5.81573,0.77442 0.34271,2.27179 -1.50305,3.22278 -2.7287,4.41235 -43.33032,42.05396 -94.28345,69.45709 -153.86285,80.64942 -22.73956,4.27179 -45.61902,5.932 -68.59888,4.58856 -34.68982,-2.02814 -68.03186,-10.32611 -99.94018,-24.14185 -34.14682,-14.78497 -64.84311,-34.88836 -91.22239,-61.15082 -37.53723,-37.37091 -62.84564,-81.90533 -76.69012,-133.06396 -7.54501,-27.88056 -10.59435,-56.23102 -9.66916,-84.98523 1.5454,-48.02982 11.39616,-94.02307 34.99362,-136.43405 1.35907,-2.44263 2.47934,-5.0896 5.15946,-7.56833 5.15509,4.59482 10.38833,9.11703 15.45804,13.81567 5.74734,5.32672 5.82278,5.46204 2.44952,12.50986 -9.83109,20.54034 -16.80505,42.00003 -20.95218,64.37512 -0.84683,4.56894 -1.16354,9.23548 -1.98758,13.8096 -0.55276,3.06827 0.58221,3.94019 3.5116,4.53516 42.06134,8.54318 79.07022,26.60644 108.47308,58.55255 25.13547,27.30963 41.14087,59.12494 46.36182,96.07892 1.04599,7.40375 1.85116,14.84155 2.75317,22.26538 0.0979,0.80566 0.21747,1.65588 -0.65393,2.23944 -1.65286,0.0236 -1.56161,-1.3974 -1.93747,-2.41797 -13.62494,-36.9945 -38.3392,-65.10711 -70.16522,-87.49377 -7.13385,-5.01801 -15.04938,-8.5578 -23.21408,-11.52832 -11.98465,-4.36042 -20.91306,2.72412 -19.73068,14.05188 0.85696,8.21008 -1.32981,9.75634 -9.82062,9.75329 -8.99939,-0.003 -17.99982,0.0552 -26.99765,-0.0697 -3.96491,-0.055 -5.38257,1.18445 -4.43778,5.39557 1.75821,7.83691 1.69788,7.76178 9.75635,7.61212 8.98679,-0.16687 17.98245,0.16333 26.97449,0.25049 3.53189,0.0342 7.00351,-0.52802 10.20743,-1.99023 5.68615,-2.5951 7.71624,-7.32154 7.70428,-13.3794 -0.0173,-8.78528 1.78906,-9.95776 9.66205,-6.0415 16.76807,8.34094 31.02496,20.00592 43.65674,33.72827 24.08075,26.15979 38.08581,57.07959 43.33712,92.09552 0.58399,3.89422 2.1341,6.51282 6.01011,8.26459 14.29992,6.46301 27.6542,14.66052 40.85266,23.11108 1.76523,1.13019 3.31848,2.81567 6.06393,2.82233 2.53415,-6.3136 1.40842,-13.11267 2.04834,-19.61035 1.33649,-13.56965 1.73575,-27.2345 2.39951,-40.86616 0.26931,-5.53039 -0.95017,-6.1892 -6.15216,-3.98004 -2.08078,0.88367 -3.90454,2.61646 -7.27072,2.1485 3.57913,-46.50982 9.98388,-92.79346 11.5606,-140.2774 -2.91653,1.56396 -3.13031,3.44586 -3.48684,5.09948 -4.23957,19.66291 -8.52662,39.31678 -12.5669,59.02094 -1.46777,7.15839 -2.2998,14.44641 -3.45013,21.67084 -0.22275,1.39904 0.19284,3.39337 -1.80265,3.64666 -2.16076,0.27436 -2.48767,-1.79675 -3.14346,-3.27966 -0.67331,-1.52252 -1.21469,-3.11603 -2.01977,-4.56396 -0.68525,-1.23243 -1.88489,-2.10822 -3.33469,-1.41248 -1.61111,0.77319 -1.96912,2.24066 -1.08835,3.79437 2.05246,3.62079 4.09631,7.25226 6.32263,10.76612 1.18992,1.87805 1.9842,3.46557 -0.15258,5.17572 -2.55814,2.04748 -3.50888,-0.3136 -4.73468,-1.70941 -11.98823,-13.6507 -11.80219,-13.63575 -9.54905,-32.51264 2.46299,-20.63495 4.51346,-41.31891 6.82273,-61.97265 0.7752,-6.93348 1.65884,-13.86078 2.74124,-20.75196 0.88699,-5.64703 -0.29679,-9.96899 -4.8074,-14.1337 -26.9314,-24.86593 -53.57523,-50.04327 -80.32041,-75.1109 -2.79507,-2.61975 -5.66873,-5.1571 -8.42319,-7.81833 -4.14935,-4.00891 -4.56506,-8.01495 -0.74707,-12.31842 7.62805,-8.59802 15.39618,-17.07922 23.32923,-25.39614 4.21704,-4.42112 8.21499,-4.06107 12.58209,0.0245 19.46439,18.2096 39.02078,36.3208 58.50635,54.50787 4.38324,4.09119 8.84167,8.14109 12.83886,12.59302 2.73203,3.04285 5.25452,3.32181 8.78043,1.73096 9.10724,-4.10922 18.31332,-8.00049 27.50128,-11.92883 2.40341,-1.02756 4.76294,-2.29319 8.16956,-2.52332 1.36789,25.10483 6.10363,49.10977 19.48901,72.02084 4.26489,-6.30465 6.73981,-12.39416 9.2179,-18.41641 6.45984,-15.69888 9.55163,-32.13009 10.13849,-49.06515 0.16925,-4.88568 1.23052,-5.61453 5.83001,-3.55841 13.8346,6.18454 27.60211,12.51876 41.42365,18.73281 2.2088,0.99308 3.1073,2.40662 3.4425,4.89048 3.84296,28.47735 7.74488,56.94522 11.01294,85.49771 1.41767,12.38556 3.18378,24.73102 4.69617,37.10632 0.22845,1.86933 0.86548,3.92511 -0.66022,5.73468 -2.49689,-0.16699 -3.69202,-2.21557 -5.23266,-3.57397 -20.84961,-18.38336 -20.82544,-18.40247 -27.61615,-45.12305 -1.05939,-4.16833 -2.25074,-8.30316 -4.22205,-12.39105 0,5.27862 -0.2431,10.57159 0.0671,15.83191 0.32232,5.46606 1.26538,10.89258 1.77881,16.35119 0.51391,5.4635 0.83221,10.94532 1.34344,16.79883 m -61.4924,89.43518 c -4.95554,26.58148 -8.39929,53.36487 -11.26151,80.73011 13.1655,-2.1576 25.7215,-4.33338 38.32258,-6.206 3.62847,-0.53924 4.9685,-2.20636 4.53466,-5.62958 -0.97949,-7.72894 -1.88434,-15.46917 -2.99621,-23.17926 -4.052,-28.09607 -8.41107,-56.14105 -15.1969,-83.73846 -0.50781,-2.06525 -0.43201,-4.77899 -4.15204,-5.91052 -4.05591,14.22876 -6.32352,28.71594 -9.25058,43.93371 z"
       id="path30"
       style="fill:#232634;fill-opacity:1;stroke:none;stroke-width:10;stroke-dasharray:none;stroke-opacity:1"
       inkscape:label="Circulo_part1" /><path
       fill="#000000"
       opacity="1"
       stroke="none"
       d="m 704.59106,448.52216 c 18.28919,-7.87397 36.52485,-14.4686 56.61762,-14.22959 -0.30219,-3.79309 -1.95484,-4.68179 -5.06506,-4.16431 -8.219,1.3675 -16.37037,3.07001 -24.20752,5.86408 -4.49201,1.60144 -6.63544,0.9487 -8.44373,-3.91064 -8.25922,-22.19376 -19.96436,-42.44605 -35.55408,-60.36878 -23.13873,-26.60153 -51.10193,-46.46112 -83.49823,-60.29666 -33.55011,-14.32831 -68.5675,-20.44315 -104.82968,-17.8837 -43.3331,3.05863 -82.74368,17.70059 -118.21084,42.84458 -3.53208,2.50399 -7.08225,4.98291 -10.59342,7.51587 -1.64276,1.18511 -3.11484,1.6878 -4.86914,0.0572 -13.17596,-12.24674 -26.40118,-24.44043 -39.587,-36.67661 -0.57505,-0.53363 -0.91645,-1.31909 -1.61734,-2.35913 4.8424,-4.74069 10.20187,-8.63184 15.48098,-12.59506 31.31085,-23.5062 65.95682,-40.01172 104.06494,-49.05733 24.9892,-5.93161 50.27091,-10.08891 76.05927,-9.17635 61.95807,2.19251 118.70666,20.11457 169.37097,56.44092 32.36963,23.20914 59.63965,51.01999 79.6828,85.66657 17.87317,30.89557 29.46423,63.94207 34.98822,99.19809 2.09021,13.3406 2.86298,26.76373 3.77814,40.19723 0.29956,4.39673 -1.33423,5.7934 -5.69153,5.77619 -34.65546,-0.13678 -69.31183,-0.11383 -103.96771,-0.0474 -3.4433,0.007 -6.19367,-0.80353 -8.12048,-3.80267 -3.32508,-5.17572 -8.17115,-6.72556 -14.16382,-6.52283 -9.8205,0.33222 -19.65735,0.19556 -29.48743,0.21381 -1.78119,0.003 -3.69025,0.45285 -6.08008,-1.78061 13.60419,-28.06925 35.82184,-47.2493 63.94415,-60.90286 z"
       id="path31"
       style="fill:#232634;fill-opacity:1;stroke:none;stroke-width:10;stroke-dasharray:none;stroke-opacity:1"
       inkscape:label="Circulo_part2" /><path
       fill="#000000"
       opacity="1"
       stroke="none"
       d="m 759.7146,600.94629 c -14.95526,0.007 -29.45056,-0.0447 -43.94519,0.0318 -10.01813,0.0529 -13.46777,2.62066 -16.6955,12.08398 -0.98236,2.88031 -2.91577,4.2995 -5.98431,4.29724 -12.49573,-0.009 -24.99164,-0.007 -37.48712,0.0604 -2.06714,0.0111 -3.44232,-0.95142 -4.65747,-2.42737 -5.42737,-6.59229 -9.94379,-13.75031 -13.57618,-21.4837 -1.41949,-3.02216 -0.55999,-4.42969 2.71296,-4.44947 4.16522,-0.0252 8.33081,0.0114 12.4956,-0.0369 1.82782,-0.0212 3.69238,0.014 5.47315,-0.32691 4.01971,-0.76959 6.94409,-3.00769 6.59668,-7.40466 -0.33332,-4.21887 -3.54798,-5.82617 -7.40552,-5.90289 -6.82855,-0.13593 -13.67182,-0.30011 -20.48804,0.008 -3.92535,0.1778 -5.38428,-1.58807 -5.86426,-5.01788 -2.03851,-14.5669 -0.26086,-28.86694 2.96039,-43.0708 0.54334,-2.39606 2.31354,-3.21259 4.45465,-3.20038 11.98645,0.0684 23.97986,-0.56616 35.95954,0.41693 2.9201,0.23962 5.15191,1.44751 6.52496,3.95166 2.65967,4.85071 6.86206,6.2511 12.10944,6.23962 36.1549,-0.0794 72.30993,-0.0475 108.46496,-0.0503 7.08466,-5.5e-4 7.22766,0.0112 6.74878,7.29468 -2.98974,45.47137 -14.28747,88.57092 -36.88806,128.41461 -9.61768,16.95551 -19.51898,33.71802 -33.41901,47.66528 -1.3482,1.35285 -2.38867,3.26593 -5.05395,3.41266 -1.08496,-5.06653 -4.97553,-5.08697 -9.18054,-5.12603 -26.99213,-0.25135 -53.97126,0.49975 -80.94648,1.15063 -12.46038,0.3006 -24.89477,1.6532 -37.34344,2.49091 -3.453,0.23242 -6.91516,0.32855 -10.72388,0.50335 0.35028,-2.92822 2.46033,-3.57916 4.0019,-4.51495 34.33758,-20.84406 70.89971,-35.88349 110.72497,-42.46253 7.05682,-1.16577 14.07898,-2.46008 21.23236,-2.89489 2.80908,-0.17078 5.04498,-1.26282 6.43634,-3.98133 1.72827,-3.37683 3.7298,-6.61371 6.5376,-11.52923 -29.5221,2.58612 -55.18073,-4.39917 -77.55365,-22.27716 1.53308,-2.69861 3.55536,-2.05268 5.26581,-2.0661 8.82995,-0.0694 17.66089,-0.002 26.4909,-0.0652 7.04413,-0.0506 11.31391,-3.06458 13.09626,-9.91193 1.24524,-4.78393 3.9505,-6.30609 8.65423,-6.22052 11.15918,0.20288 22.32483,0.0391 33.48785,0.0428 10.30726,0.003 12.409,-2.14178 12.58954,-12.97009 -1.67749,-0.96155 -3.55072,-0.53437 -5.80627,-0.67383 z"
       id="path32"
       style="fill:#232634;fill-opacity:1;stroke:none;stroke-width:10;stroke-dasharray:none;stroke-opacity:1"
       inkscape:label="Circulo_part3" /><path
       fill="#000000"
       opacity="1"
       stroke="none"
       d="m 546.14001,407.86377 c -6.78643,13.97638 -19.02972,21.22534 -33.02478,19.84656 -15.50149,-1.52716 -26.22314,-9.69474 -29.66967,-23.81922 -3.21256,-13.16562 -0.60251,-25.53717 9.96045,-34.54083 10.44213,-8.90069 22.94586,-10.2908 35.60614,-5.07065 13.00634,5.36289 19.09503,15.99402 20.06494,29.66294 0.33142,4.67083 -1.03675,9.20779 -2.93708,13.9212 z"
       id="path33"
       inkscape:label="Cabeca"
       style="fill:#232634;fill-opacity:1;stroke:none;stroke-width:10;stroke-dasharray:none;stroke-opacity:1"
       transform="translate(0.77770454,0.71474207)" /><path
       fill="#000000"
       opacity="1"
       stroke="none"
       d="m 296.03656,478.14136 c -7.90585,-2.10486 -15.38043,-4.33884 -22.90924,-6.37201 -2.70178,-0.72962 -4.06857,-1.9606 -3.45255,-4.90222 4.53937,-21.67511 10.16065,-43.00186 20.20331,-62.90512 0.50342,-0.99775 1.33469,-1.83005 1.97324,-2.6857 2.53613,0.14041 3.46051,2.15496 4.8865,3.42257 5.09439,4.52844 10.01273,9.26514 15.25562,13.61194 2.56482,2.12644 3.3786,3.96543 1.957,7.18234 -7.07047,15.99967 -12.44376,32.55875 -15.75171,49.76014 -0.22534,1.17166 -0.55966,2.2677 -2.16217,2.88806 z"
       id="path34"
       style="fill:#232634;fill-opacity:1;stroke:none;stroke-width:10;stroke-dasharray:none;stroke-opacity:1"
       transform="translate(0.77770454,0.71474207)"
       inkscape:label="path1" /><path
       fill="#000000"
       opacity="1"
       stroke="none"
       d="m 681.49274,401.10153 c -7.30408,13.76444 -22.38623,18.19608 -34.85236,10.56119 -12.38312,-7.58405 -15.75879,-24.23129 -7.35083,-36.25104 5.18805,-7.41684 17.01398,-11.34634 26.37909,-8.76529 9.43597,2.60056 17.11566,11.89035 17.65057,21.34757 0.24622,4.35321 -0.0365,8.63608 -1.82647,13.10757 z"
       id="path35"
       style="fill:#232634;fill-opacity:1;stroke:none;stroke-width:10;stroke-dasharray:none;stroke-opacity:1"
       transform="translate(0.77770454,0.71474207)"
       inkscape:label="Planeta5" /><path
       fill="#000000"
       opacity="1"
       stroke="none"
       d="m 583.58081,327.45355 c 10.59375,-6.64111 21.3186,-4.18689 26.76141,5.83383 5.04957,9.2966 1.47809,19.76868 -8.27679,24.26871 -7.81439,3.60489 -17.27441,1.07449 -22.2572,-5.95343 -5.1388,-7.24795 -3.79218,-16.52075 3.77258,-24.14911 z"
       id="path36"
       style="fill:#232634;fill-opacity:1;stroke:none;stroke-width:10;stroke-dasharray:none;stroke-opacity:1"
       transform="translate(0.77770454,0.71474207)"
       inkscape:label="Planeta4" /><path
       fill="#000000"
       opacity="1"
       stroke="none"
       d="m 625.56958,456.43549 c -0.73413,-0.98337 -1.29028,-1.63163 -1.63416,-2.37772 -2.53375,-5.49643 -1.02636,-11.83478 3.45624,-14.70783 4.33271,-2.77697 9.74799,-1.98928 13.10779,1.90665 3.38428,3.92426 3.26953,10.81745 -0.24487,14.71137 -3.63135,4.02353 -9.03772,4.30768 -14.685,0.46753 z"
       id="path37"
       style="fill:#232634;fill-opacity:1;stroke:none;stroke-width:10;stroke-dasharray:none;stroke-opacity:1"
       transform="translate(0.77770454,0.71474207)"
       inkscape:label="Planeta3" /><path
       fill="#000000"
       opacity="1"
       stroke="none"
       d="m 458.33621,317.25616 c 6.28046,3.19748 8.11972,8.69165 4.70011,13.05564 -2.85038,3.63766 -7.35926,4.81732 -11.11133,2.82324 -3.79618,-2.01767 -4.83075,-5.34039 -3.97916,-9.31027 1.0344,-4.82202 4.39389,-6.99652 10.39038,-6.56861 z"
       id="path38"
       style="fill:#232634;fill-opacity:1;stroke:none;stroke-width:10;stroke-dasharray:none;stroke-opacity:1"
       sodipodi:insensitive="true"
       transform="translate(0.77770454,0.71474207)"
       inkscape:label="Planeta2" /><path
       fill="#000000"
       opacity="1"
       stroke="none"
       d="m 423.00018,344.21106 c 3.36078,-3.26584 6.56495,-3.13562 9.36921,-0.0855 2.44207,2.65613 2.46402,5.80673 0.13677,8.58612 -2.23254,2.66629 -5.2268,2.98871 -8.03872,1.10831 -3.56595,-2.38459 -3.24881,-5.78971 -1.46726,-9.60889 z"
       id="path39"
       style="fill:#232634;fill-opacity:1;stroke:none;stroke-width:10;stroke-dasharray:none;stroke-opacity:1"
       transform="translate(0.77770454,0.71474207)"
       inkscape:label="Planeta1" /><path
       fill="#000000"
       opacity="1"
       stroke="none"
       d="m 281.69229,383.16083 c -20.63583,-19.17987 -41.02544,-38.10477 -61.38838,-57.05832 -8.98155,-8.35993 -9.70217,-19.08337 -1.87108,-28.42536 5.14293,-6.13522 10.94876,-11.64273 16.62035,-17.2823 6.70097,-6.66315 19.67562,-7.73092 28.25718,0.34439 27.89594,26.25023 56.53275,51.71254 84.84906,77.51693 8.12534,7.40454 16.17719,14.89148 24.17423,22.43444 4.63504,4.37189 4.53714,12.46329 0.10498,17.05371 -6.36115,6.58829 -12.65924,13.23801 -18.9354,19.90747 -3.45452,3.67109 -6.36474,7.75296 -7.97561,12.56965 -1.01621,3.03842 -2.67926,3.59112 -5.70084,2.86669 -4.3154,-1.03466 -7.88641,-2.78588 -11.19629,-5.94815 -15.41671,-14.72897 -31.09588,-29.18325 -46.9382,-43.97915 z"
       id="path40"
       inkscape:label="TampaCaneta"
       style="fill:#232634;fill-opacity:1;stroke:#c6d0f5;stroke-width:20;stroke-dasharray:none;stroke-opacity:1"
       transform="translate(-12.76211,-25.273608)" /></g></g></svg>
